<svg width="61" height="153" viewBox="0 0 61 153" fill="none" xmlns="http://www.w3.org/2000/svg">
<rect x="34" y="3" width="4" height="146" fill="#7BDB00"/>
<path d="M36 152L34.2679 149H37.7321L36 152Z" fill="#7BDB00"/>
<path d="M36 0L37.7321 3H34.2679L36 0Z" fill="#7BDB00"/>
<path d="M60 124.287L46.5 138.426L58.4792 151.434L38.5 138.992L47 124.287L4.5 83L21 66.5984L1 36.0574C11.6667 30.4016 33.1 18.7508 33.5 17.3934C33.9 16.0361 49 14.5656 56.5 14L33.5 32.6639L11 42.2787L33.5 70.5574L14 82.4344L60 124.287Z" fill="#7BDB00"/>
<path d="M59 152L58.4792 151.434M58.4792 151.434L46.5 138.426L60 124.287L14 82.4344L33.5 70.5574L11 42.2787L33.5 32.6639L56.5 14C49 14.5656 33.9 16.0361 33.5 17.3934C33.1 18.7508 11.6667 30.4016 1 36.0574L21 66.5984L4.5 83L47 124.287L38.5 138.992L58.4792 151.434Z" stroke="#7BDB00"/>
</svg>
